<svg width="40" height="40" xmlns="http://www.w3.org/2000/svg" shape-rendering="crispEdges">
<rect width="40" height="40" fill="#006f1f"/>
<path fill="none" stroke="#3dde88" transform="translate(0,0.5)scale(1)" d="M20 0h1m3 0h1m3 0h1m3 0h1m1 0h1m1 0h1m1 0h1M22 2h1m3 0h1m3 0h1m3 0h1m1 0h1m1 0h1M8 4h1m3 0h1m3 0h1m3 0h1m1 0h1m1 0h1m1 0h1m1 0h1m1 0h1m1 0h1m1 0h1m1 0h1m1 0h1M37 5h1M10 6h1m3 0h1m3 0h1m3 0h1m1 0h1m1 0h1m1 0h1m1 0h1m1 0h1m1 0h1m1 0h1m1 0h1M39 7h1M0 8h1m3 0h1m3 0h1m1 0h1m1 0h1m1 0h1m1 0h1m1 0h1m1 0h1m1 0h1m1 0h1m1 0h1m1 0h1m1 0h1m1 0h1m1 0h1m1 0h1m1 0h1M25 9h1m3 0h1m3 0h1m3 0h1m1 0h1M2 10h1m3 0h1m3 0h1m1 0h1m1 0h1m1 0h1m1 0h1m1 0h1m1 0h1m1 0h1m1 0h1m1 0h1m1 0h1m1 0h1m1 0h1m1 0h1m1 0h1M27 11h1m3 0h1m3 0h1m3 0h1M0 12h1m1 0h1m1 0h1m1 0h1m1 0h1m1 0h1m1 0h1m1 0h1m1 0h1m1 0h1m1 0h1m1 0h1m1 0h1m1 0h1m1 0h1m1 0h1m1 0h1m1 0h1m1 0h1m1 0h1M13 13h1m3 0h1m3 0h1m3 0h1m1 0h1m1 0h1m1 0h1m1 0h1m1 0h1m1 0h1m1 0h1M0 14h1m1 0h1m1 0h1m1 0h1m1 0h1m1 0h1m1 0h1m1 0h1m1 0h1m1 0h1m1 0h1m1 0h1m1 0h1m1 0h1m1 0h1m1 0h1m1 0h1m1 0h1m1 0h1m1 0h1M15 15h1m3 0h1m3 0h1m3 0h1m1 0h1m1 0h1m1 0h1m1 0h1m1 0h1m1 0h1M0 16h1m1 0h1m1 0h1m1 0h1m1 0h1m1 0h1m1 0h1m1 0h1m1 0h1m1 0h1m1 0h1m1 0h1m1 0h1m1 0h1m1 0h1m1 0h1m1 0h3m1 0h3M1 17h1m3 0h1m3 0h1m3 0h1m1 0h1m1 0h1m1 0h1m1 0h1m1 0h1m1 0h1m1 0h1m1 0h1m1 0h1m1 0h1m1 0h1m1 0h1m1 0h1M0 18h1m1 0h1m1 0h1m1 0h1m1 0h1m1 0h1m1 0h1m1 0h1m1 0h1m1 0h1m1 0h1m1 0h1m1 0h1m1 0h1m1 0h1m1 0h1m1 0h1m1 0h3m1 0h2M3 19h1m3 0h1m3 0h1m3 0h1m1 0h1m1 0h1m1 0h1m1 0h1m1 0h1m1 0h1m1 0h1m1 0h1m1 0h1m1 0h1m1 0h1m1 0h1M0 20h1m1 0h1m1 0h1m1 0h1m1 0h1m1 0h1m1 0h1m1 0h1m1 0h1m1 0h1m1 0h3m1 0h3m1 0h3m1 0h3m1 0h4M1 21h1m1 0h1m1 0h1m1 0h1m1 0h1m1 0h1m1 0h1m1 0h1m1 0h1m1 0h1m1 0h1m1 0h1m1 0h1m1 0h1m1 0h1m1 0h1m1 0h1m1 0h1m1 0h1m1 0h1M0 22h1m1 0h1m1 0h1m1 0h1m1 0h1m1 0h1m1 0h1m1 0h1m1 0h1m1 0h1m1 0h1m1 0h3m1 0h3m1 0h3m1 0h3m1 0h2M3 23h1m1 0h1m1 0h1m1 0h1m1 0h1m1 0h1m1 0h1m1 0h1m1 0h1m1 0h1m1 0h1m1 0h1m1 0h1m1 0h1m1 0h1m1 0h1m1 0h1m1 0h1m1 0h1M0 24h1m1 0h1m1 0h1m1 0h1m1 0h3m1 0h3m1 0h3m1 0h3m1 0h16M1 25h1m1 0h1m1 0h1m1 0h1m1 0h1m1 0h1m1 0h1m1 0h1m1 0h1m1 0h1m1 0h1m1 0h1m1 0h1m1 0h1m1 0h1m1 0h1m1 0h1m1 0h1m1 0h1m1 0h1M0 26h1m1 0h1m1 0h1m1 0h1m1 0h1m1 0h3m1 0h3m1 0h3m1 0h3m1 0h14M1 27h1m1 0h1m1 0h1m1 0h1m1 0h1m1 0h1m1 0h1m1 0h1m1 0h1m1 0h1m1 0h1m1 0h1m1 0h1m1 0h1m1 0h1m1 0h1m1 0h1m1 0h1m1 0h1m1 0h1M0 28h3m1 0h3m1 0h3m1 0h28M1 29h1m1 0h1m1 0h1m1 0h1m1 0h1m1 0h1m1 0h1m1 0h1m1 0h1m1 0h1m1 0h1m1 0h1m1 0h1m1 0h3m1 0h3m1 0h3m1 0h1M0 30h1m1 0h3m1 0h3m1 0h3m1 0h26M1 31h1m1 0h1m1 0h1m1 0h1m1 0h1m1 0h1m1 0h1m1 0h1m1 0h1m1 0h1m1 0h1m1 0h1m1 0h1m1 0h1m1 0h3m1 0h3m1 0h3M0 32h40M1 33h1m1 0h1m1 0h1m1 0h1m1 0h1m1 0h1m1 0h1m1 0h3m1 0h3m1 0h3m1 0h13M0 34h1m1 0h38M1 35h1m1 0h1m1 0h1m1 0h1m1 0h1m1 0h1m1 0h1m1 0h1m1 0h3m1 0h3m1 0h3m1 0h11M0 36h40M1 37h1m1 0h3m1 0h3m1 0h3m1 0h25M0 38h40M1 39h1m1 0h1m1 0h3m1 0h3m1 0h3m1 0h23"/>
</svg>